<?xml version="1.0" encoding="utf-8"?>
<!-- Generator: Adobe Illustrator 22.0.1, SVG Export Plug-In . SVG Version: 6.00 Build 0)  -->
<svg version="1.1" id="Layer_1" xmlns="http://www.w3.org/2000/svg" xmlns:xlink="http://www.w3.org/1999/xlink" x="0px" y="0px"
	 width="24px" height="24px" viewBox="0 0 24 24" style="enable-background:new 0 0 24 24;" xml:space="preserve">
<style type="text/css">
	.st0{fill:#28749D;}
</style>
<path class="st0" d="M13.3,0.9c0-0.5,0.4-0.9,0.9-0.9h8.9C23.6,0,24,0.4,24,0.9V23c0,0.5-0.4,0.9-0.9,0.9h-8.9
	c-0.5,0-0.9-0.4-0.9-0.9s0.4-0.9,0.9-0.9h7.9V1.8h-7.9C13.7,1.8,13.3,1.4,13.3,0.9z M1,12.9h16.3l-3.7,3.7c-0.4,0.4-0.4,1,0,1.3
	c0.4,0.4,1,0.4,1.3,0l5.3-5.3c0.4-0.4,0.4-1,0-1.3L14.9,6c-0.4-0.4-1-0.4-1.3,0s-0.4,1,0,1.3l3.7,3.7H1c-0.6,0-1,0.4-1,0.9
	S0.4,12.9,1,12.9z"/>
</svg>
