<svg id="Layer_1" data-name="Layer 1" xmlns="http://www.w3.org/2000/svg" width="40" height="32.07" viewBox="0 0 40 32.07"><defs><style>.cls-1{fill:#fff;}</style></defs><title>cart-ico</title><path class="cls-1" d="M35.16,25.64l4.73-14a1.34,1.34,0,0,0-.13-1.34,2.13,2.13,0,0,0-1.69-.69H11.34l-.72-3.34A1.87,1.87,0,0,0,8.71,4.71H1.2C.42,4.71,0,5.07,0,5.79V7.72c0,.7.42.87,1.23.87H7.57L12.43,29a4.64,4.64,0,0,0,3.24,7.74,4.93,4.93,0,0,0,4.39-3.47h9.46a4.61,4.61,0,0,0,4.39,3.52,4.53,4.53,0,0,0,4.43-4.51,4.23,4.23,0,0,0-4.41-4.53,4.33,4.33,0,0,0-3.33,1.62H19a3.68,3.68,0,0,0-3.16-1.74l-.16-.85H33.33c1.34,0,1.59-.48,1.83-1.12Zm-1.22,4.92a1.65,1.65,0,1,1-1.67,1.65,1.66,1.66,0,0,1,1.67-1.65ZM17.31,32.21a1.68,1.68,0,1,1-1.68-1.67,1.67,1.67,0,0,1,1.68,1.67Zm0,0" transform="translate(0 -4.71)"/></svg>