<svg id="Layer_1" data-name="Layer 1" xmlns="http://www.w3.org/2000/svg" width="8.28" height="18" viewBox="0 0 8.28 18"><defs><style>.cls-1{fill:#bababa;}</style></defs><title>info-ico</title><path class="cls-1" d="M10.33,0a1.68,1.68,0,0,1,1.81,1.76A2.37,2.37,0,0,1,9.73,4,1.61,1.61,0,0,1,7.95,2.23,2.32,2.32,0,0,1,10.33,0ZM6.62,18c-1,0-1.65-.59-1-3.17l1.09-4.58c.19-.73.22-1,0-1a7.18,7.18,0,0,0-2.25,1L4,9.43c2.32-2,5-3.12,6.12-3.12,1,0,1.11,1.14.63,2.91L9.5,14c-.22.85-.13,1.15.09,1.15a4.9,4.9,0,0,0,2.14-1.09l.54.73A9.9,9.9,0,0,1,6.62,18Zm0,0" transform="translate(-4)"/></svg>