<?xml version="1.0" encoding="utf-8"?>
<!-- Generator: Adobe Illustrator 22.0.1, SVG Export Plug-In . SVG Version: 6.00 Build 0)  -->
<svg version="1.1" id="Layer_1" xmlns="http://www.w3.org/2000/svg" xmlns:xlink="http://www.w3.org/1999/xlink" x="0px" y="0px"
	 width="32px" height="32px" viewBox="0 0 32 32" style="enable-background:new 0 0 32 32;" xml:space="preserve">
<style type="text/css">
	.st0{fill:#FFFFFF;}
</style>
<g id="surface1">
	<path class="st0" d="M31.1,2.3H27c0-0.5,0-0.9,0-1.4C27,0.4,26.6,0,26,0H6C5.4,0,5,0.4,5,0.9c0,0.5,0,0.9,0,1.4H0.9
		C0.4,2.3,0,2.7,0,3.2c0,4.2,1.1,8.2,3.1,11.2c2,3,4.6,4.7,7.4,4.8c0.6,0.7,1.3,1.3,2,1.7v4.2H11c-1.9,0-3.4,1.5-3.4,3.4v1.6H7.5
		c-0.5,0-0.9,0.4-0.9,0.9c0,0.5,0.4,0.9,0.9,0.9h17.1c0.5,0,0.9-0.4,0.9-0.9c0-0.5-0.4-0.9-0.9-0.9h-0.1v-1.6c0-1.9-1.5-3.4-3.4-3.4
		h-1.6v-4.2c0.7-0.4,1.4-1,2-1.7c2.8-0.2,5.5-1.9,7.4-4.8c2-3,3.1-7,3.1-11.2C32,2.7,31.6,2.3,31.1,2.3z M4.7,13.4
		C3,10.9,2,7.7,1.9,4.2h3.3c0.3,4.3,1.3,8.2,2.9,11.4c0.3,0.5,0.5,1,0.8,1.4C7.3,16.4,5.8,15.2,4.7,13.4z M22.6,28.6v1.6H9.4v-1.6
		c0-0.9,0.7-1.6,1.6-1.6h10C21.9,27,22.6,27.7,22.6,28.6z M17.6,25.1h-3.1v-3.4c0.5,0.1,1,0.2,1.6,0.2s1.1-0.1,1.6-0.2V25.1z
		 M18.2,19.5c0,0-0.1,0-0.1,0.1c-0.7,0.3-1.3,0.5-2,0.5c-0.7,0-1.4-0.2-2-0.5c0,0-0.1,0-0.1-0.1c-0.7-0.4-1.4-1-2.1-1.7
		c0-0.1-0.1-0.1-0.1-0.1c-0.7-0.8-1.3-1.8-1.9-2.9C8,11.3,7,6.7,6.9,1.9h18.2C25,6.7,24,11.3,22.3,14.7c-0.6,1.1-1.2,2.1-1.9,2.9
		c0,0-0.1,0.1-0.1,0.1C19.6,18.5,18.9,19.1,18.2,19.5z M27.3,13.4c-1.2,1.8-2.6,3-4.2,3.6c0.3-0.4,0.5-0.9,0.8-1.4
		c1.6-3.1,2.6-7.1,2.9-11.4h3.3C30,7.7,29,10.9,27.3,13.4z"/>
</g>
</svg>
