<?xml version="1.0" encoding="utf-8"?>
<!-- Generator: Adobe Illustrator 22.0.1, SVG Export Plug-In . SVG Version: 6.00 Build 0)  -->
<svg version="1.1" id="Capa_1" xmlns="http://www.w3.org/2000/svg" xmlns:xlink="http://www.w3.org/1999/xlink" x="0px" y="0px"
	 width="20px" height="20px" viewBox="0 0 20 20" style="enable-background:new 0 0 20 20;" xml:space="preserve">
<style type="text/css">
	.st0{fill:#FFFFFF;}
</style>
<g>
	<g>
		<path class="st0" d="M19.9,2.5c-0.1-0.1-0.3-0.2-0.5-0.2H4.1L3.6,0.4C3.6,0.2,3.3,0,3.1,0H0.6C0.3,0,0,0.3,0,0.6s0.3,0.6,0.6,0.6
			h2l2.9,12.6c0.1,0.3,0.3,0.4,0.6,0.4h11.6c0.3,0,0.6-0.3,0.6-0.6c0-0.3-0.3-0.6-0.6-0.6H6.6l-0.4-1.9h11.6c0.3,0,0.5-0.2,0.6-0.5
			L20,3C20,2.8,20,2.7,19.9,2.5z"/>
	</g>
</g>
<g>
	<g>
		<path class="st0" d="M8.5,15c-1.2,0-2.1,0.9-2.1,2.1c0,1.2,0.9,2.1,2.1,2.1c1.2,0,2.1-0.9,2.1-2.1C10.6,15.9,9.6,15,8.5,15z"/>
	</g>
</g>
<g>
	<g>
		<path class="st0" d="M15.4,15c-1.2,0-2.1,0.9-2.1,2.1c0,1.2,0.9,2.1,2.1,2.1c1.2,0,2.1-0.9,2.1-2.1C17.5,15.9,16.6,15,15.4,15z"/>
	</g>
</g>
</svg>
