<?xml version="1.0" encoding="utf-8"?>
<!-- Generator: Adobe Illustrator 22.0.1, SVG Export Plug-In . SVG Version: 6.00 Build 0)  -->
<svg version="1.1" id="Layer_1" xmlns="http://www.w3.org/2000/svg" xmlns:xlink="http://www.w3.org/1999/xlink" x="0px" y="0px"
	 width="35px" height="32.2px" viewBox="0 0 35 32.2" style="enable-background:new 0 0 35 32.2;" xml:space="preserve">
<style type="text/css">
	.st0{fill:#FFFFFF;}
</style>
<path class="st0" d="M30.2,0H4.8C2.2,0,0,2.2,0,4.8v15.5c0,2.6,2.1,4.8,4.8,4.8v7l10.1-7h15.3c2.7,0,4.8-2.2,4.8-4.8V4.8
	C35,2.2,32.8,0,30.2,0z M32.9,20.3c0,1.5-1.2,2.8-2.8,2.8H14.3l-7.4,5.2v-5.2h-2c-1.5,0-2.8-1.2-2.8-2.8V4.8c0-1.5,1.2-2.8,2.8-2.8
	h25.4c1.5,0,2.8,1.2,2.8,2.8V20.3z"/>
<path class="st0" d="M9.4,7.2h16.3v2.1H9.4V7.2z"/>
<path class="st0" d="M9.4,11.6h16.3v2.1H9.4V11.6z"/>
<path class="st0" d="M9.4,16h16.3V18H9.4V16z"/>
</svg>
