<?xml version="1.0" encoding="utf-8"?>
<!-- Generator: Adobe Illustrator 22.0.1, SVG Export Plug-In . SVG Version: 6.00 Build 0)  -->
<svg version="1.1" id="Layer_1" xmlns="http://www.w3.org/2000/svg" xmlns:xlink="http://www.w3.org/1999/xlink" x="0px" y="0px"
	 width="40px" height="31px" viewBox="0 0 40 31" style="enable-background:new 0 0 40 31;" xml:space="preserve">
<style type="text/css">
	.st0{fill:#FFFFFF;}
</style>
<path class="st0" d="M30.3,1.3c-1.6,0.4-3.3,0.2-4.8-0.6L24.3,0L20,11.8L15.7,0l-1.2,0.7c-1.5,0.8-3.2,1-4.8,0.6
	C6.5,0.5,3.2,1.5,0.9,3.9L0,4.9l4.9,13.5l1.8-1.9c1.7-1.7,4.1-2.5,6.5-1.9c1.8,0.4,3.6,0.3,5.3-0.3l0.4,1l-5.4,14.8l2.2,0.8L20,18.7
	l4.4,12.2l2.2-0.8l-5.4-14.8l0.4-1c1.7,0.6,3.5,0.7,5.3,0.3c2.3-0.6,4.8,0.2,6.5,1.9l1.8,1.9L40,4.9l-0.9-1
	C36.8,1.5,33.5,0.5,30.3,1.3z M15.6,6.6C14.8,6.8,14,7,13.2,7l-1.2-3.2c0.8-0.1,1.6-0.2,2.3-0.5L15.6,6.6z M9.5,3.6l1.1,2.9
	c-0.8-0.1-1.7-0.1-2.5,0L6.9,3.4C8.2,3.3,9,3.5,9.5,3.6z M4.7,4l1.2,3.3C5.2,7.6,4.5,8,3.8,8.5L2.7,5.4C3.3,4.8,3.9,4.3,4.7,4z
	 M5.8,14l-1.1-3.1c0.6-0.6,1.2-1.1,2-1.4l1.2,3.3C7.2,13.1,6.5,13.5,5.8,14z M10.1,12.1L9,8.9c0.7-0.1,1.5,0,2.2,0.2
	c0.1,0,0.3,0.1,0.4,0.1l1.1,2.9C11.8,12,10.9,12,10.1,12.1z M15.2,12.5l-1.2-3.2c0.8-0.1,1.6-0.2,2.3-0.5l1.2,3.3
	C16.8,12.3,16,12.5,15.2,12.5z M37.3,5.4l-1.1,3.1c-0.6-0.5-1.3-0.9-2-1.2L35.3,4C36.1,4.3,36.7,4.8,37.3,5.4z M33.1,3.4l-1.2,3.2
	c-0.8-0.1-1.6-0.1-2.5,0l1.1-2.9C31,3.5,31.8,3.3,33.1,3.4z M25.6,3.3c0.7,0.3,1.5,0.4,2.3,0.5L26.8,7c-0.8,0-1.6-0.1-2.3-0.4
	L25.6,3.3z M23.6,8.8c0.7,0.3,1.5,0.4,2.3,0.5l-1.2,3.2c-0.8,0-1.6-0.1-2.3-0.4L23.6,8.8z M27.4,12.1l1.1-2.9
	C29,9.1,29.8,8.8,31,8.9l-1.2,3.2c-0.5-0.1-0.9-0.1-1.4-0.1C28.1,12,27.7,12.1,27.4,12.1z M34.2,14c-0.6-0.5-1.3-0.9-2-1.2l1.2-3.3
	c0.7,0.3,1.4,0.8,2,1.4L34.2,14z"/>
</svg>
