<?xml version="1.0" encoding="utf-8"?>
<!-- Generator: Adobe Illustrator 22.0.1, SVG Export Plug-In . SVG Version: 6.00 Build 0)  -->
<svg version="1.1" id="Layer_1" xmlns="http://www.w3.org/2000/svg" xmlns:xlink="http://www.w3.org/1999/xlink" x="0px" y="0px"
	 width="20px" height="17.5px" viewBox="0 0 20 17.5" style="enable-background:new 0 0 20 17.5;" xml:space="preserve">
<style type="text/css">
	.st0{fill:#393E77;}
</style>
<path class="st0" d="M17.5,5c-0.4,0-0.7,0.1-1.1,0.2l-1.7-1.7c0.6-1.2,0.1-2.7-1.2-3.3s-2.7-0.1-3.3,1.2c-0.5,1-0.2,2.2,0.6,3
	l-3.3,8.1c0,0-0.1,0-0.1,0c-0.3,0-0.5,0-0.7,0.1L4.6,9.7C5.3,8.6,5,7,3.9,6.3S1.2,5.8,0.4,7S0,9.7,1.1,10.4c0.6,0.4,1.4,0.5,2.1,0.3
	l2.2,2.9c-0.8,1.1-0.5,2.7,0.7,3.5c1.1,0.8,2.7,0.5,3.5-0.7c0.7-1,0.5-2.4-0.4-3.3L12.4,5c0,0,0.1,0,0.1,0c0.4,0,0.7-0.1,1.1-0.2
	l1.7,1.7c-0.6,1.2-0.1,2.7,1.2,3.3s2.7,0.1,3.3-1.2s0.1-2.7-1.2-3.3C18.2,5.1,17.9,5,17.5,5L17.5,5z"/>
</svg>
