<?xml version="1.0" encoding="utf-8"?>
<!-- Generator: Adobe Illustrator 22.0.1, SVG Export Plug-In . SVG Version: 6.00 Build 0)  -->
<svg version="1.1" id="Layer_1" xmlns="http://www.w3.org/2000/svg" xmlns:xlink="http://www.w3.org/1999/xlink" x="0px" y="0px"
	 width="16px" height="16px" viewBox="0 0 16 16" style="enable-background:new 0 0 16 16;" xml:space="preserve">
<style type="text/css">
	.st0{fill:#FFFFFF;}
</style>
<path class="st0" d="M16,4.7c0-0.9-0.2-1.4-0.4-1.9c-0.2-0.5-0.5-1-0.9-1.4c-0.4-0.4-0.9-0.7-1.4-0.9c-0.5-0.2-1.1-0.3-1.9-0.4
	C10.4,0,10.2,0,8,0S5.6,0,4.7,0c-0.9,0-1.4,0.2-1.9,0.4c-0.5,0.2-1,0.5-1.4,0.9C0.9,1.7,0.6,2.2,0.4,2.8C0.2,3.3,0.1,3.9,0.1,4.7
	C0,5.6,0,5.8,0,8s0,2.4,0,3.3c0,0.9,0.2,1.4,0.4,1.9c0.2,0.5,0.5,1,0.9,1.4c0.4,0.4,0.9,0.7,1.4,0.9c0.5,0.2,1.1,0.3,1.9,0.4
	c0.9,0,1.1,0,3.3,0s2.4,0,3.3,0c0.9,0,1.4-0.2,1.9-0.4c1.1-0.4,1.9-1.3,2.3-2.3c0.2-0.5,0.3-1.1,0.4-1.9c0-0.9,0-1.1,0-3.3
	S16,5.6,16,4.7z M14.5,11.2c0,0.8-0.2,1.2-0.3,1.5c-0.3,0.7-0.8,1.3-1.5,1.5c-0.3,0.1-0.7,0.2-1.5,0.3c-0.8,0-1.1,0-3.2,0
	s-2.4,0-3.2,0c-0.8,0-1.2-0.2-1.5-0.3c-0.3-0.1-0.7-0.3-0.9-0.6c-0.3-0.3-0.5-0.6-0.6-0.9c-0.1-0.3-0.2-0.7-0.3-1.5
	c0-0.8,0-1.1,0-3.2s0-2.4,0-3.2c0-0.8,0.2-1.2,0.3-1.5c0.1-0.3,0.3-0.7,0.6-0.9c0.3-0.3,0.6-0.5,0.9-0.6C3.6,1.7,4,1.5,4.8,1.5
	c0.8,0,1.1,0,3.2,0c2.1,0,2.4,0,3.2,0c0.8,0,1.2,0.2,1.5,0.3c0.3,0.1,0.7,0.3,0.9,0.6c0.3,0.3,0.5,0.6,0.6,0.9
	c0.1,0.3,0.2,0.7,0.3,1.5c0,0.8,0,1.1,0,3.2S14.6,10.4,14.5,11.2z"/>
<path class="st0" d="M8,3.9C5.7,3.9,3.9,5.7,3.9,8s1.8,4.1,4.1,4.1c2.3,0,4.1-1.8,4.1-4.1S10.3,3.9,8,3.9z M8,10.7
	c-1.5,0-2.7-1.2-2.7-2.7S6.5,5.3,8,5.3c1.5,0,2.7,1.2,2.7,2.7S9.5,10.7,8,10.7z"/>
<path class="st0" d="M13.2,3.7c0,0.5-0.4,1-1,1c-0.5,0-1-0.4-1-1c0-0.5,0.4-1,1-1C12.8,2.8,13.2,3.2,13.2,3.7z"/>
</svg>
