<?xml version="1.0" encoding="utf-8"?>
<!-- Generator: Adobe Illustrator 22.0.1, SVG Export Plug-In . SVG Version: 6.00 Build 0)  -->
<svg version="1.1" id="Layer_1" xmlns="http://www.w3.org/2000/svg" xmlns:xlink="http://www.w3.org/1999/xlink" x="0px" y="0px"
	 width="20px" height="20px" viewBox="0 0 20 20" style="enable-background:new 0 0 20 20;" xml:space="preserve">
<style type="text/css">
	.st0{fill:#FFFFFF;}
</style>
<path class="st0" d="M20,10c0-5.5-4.5-10-10-10S0,4.5,0,10c0,1.8,0.5,3.5,1.4,5.1L0,20l4.9-1.3C6.5,19.5,8.2,20,10,20
	C15.5,20,20,15.5,20,10z M8.5,7.7H6.9C6.9,6,8.3,4.6,10,4.6s3.1,1.4,3.1,3.1c0,0.9-0.4,1.7-1,2.3l-1.3,1.2v1.2H9.2v-1.9L11,8.8
	c0.3-0.3,0.5-0.7,0.5-1.1c0-0.8-0.7-1.5-1.5-1.5S8.5,6.8,8.5,7.7z M9.2,13.9h1.5v1.5H9.2V13.9z"/>
</svg>
