<?xml version="1.0" encoding="utf-8"?>
<!-- Generator: Adobe Illustrator 22.0.1, SVG Export Plug-In . SVG Version: 6.00 Build 0)  -->
<svg version="1.1" id="Capa_1" xmlns="http://www.w3.org/2000/svg" xmlns:xlink="http://www.w3.org/1999/xlink" x="0px" y="0px"
	 width="22px" height="22px" viewBox="0 0 22 22" style="enable-background:new 0 0 22 22;" xml:space="preserve">
<style type="text/css">
	.st0{fill:#FFFFFF;}
</style>
<g>
	<g>
		<path class="st0" d="M21.7,20.4l-6.3-6.3c1.2-1.5,1.9-3.4,1.9-5.5c0-4.8-3.9-8.7-8.7-8.7S0,3.9,0,8.7s3.9,8.7,8.7,8.7
			c2.1,0,4-0.7,5.5-1.9l6.3,6.3c0.2,0.2,0.4,0.3,0.6,0.3s0.5-0.1,0.6-0.3C22.1,21.4,22.1,20.8,21.7,20.4z M8.7,15.6
			c-3.8,0-6.9-3.1-6.9-6.9s3.1-6.9,6.9-6.9s6.9,3.1,6.9,6.9S12.5,15.6,8.7,15.6z"/>
	</g>
</g>
</svg>
