<?xml version="1.0" encoding="utf-8"?>
<!-- Generator: Adobe Illustrator 22.0.1, SVG Export Plug-In . SVG Version: 6.00 Build 0)  -->
<svg version="1.1" id="Capa_1" xmlns="http://www.w3.org/2000/svg" xmlns:xlink="http://www.w3.org/1999/xlink" x="0px" y="0px"
	 width="20px" height="20px" viewBox="0 0 20 20" style="enable-background:new 0 0 20 20;" xml:space="preserve">
<style type="text/css">
	.st0{fill:#FFFFFF;}
</style>
<g>
	<g>
		<path class="st0" d="M19.9,15.9l-3.6-6.3c0.4-0.8,0.6-1.8,0.6-2.8C16.9,3.1,13.8,0,10,0S3.1,3.1,3.1,6.9c0,1,0.2,1.9,0.6,2.8
			l-3.6,6.3c-0.1,0.2-0.1,0.5,0,0.7s0.4,0.3,0.7,0.2l3.7-1l1,3.7C5.5,19.8,5.7,20,6,20C6,20,6,20,6,20c0.2,0,0.4-0.1,0.5-0.3
			l3.4-5.9l3.4,5.9c0.1,0.2,0.3,0.3,0.5,0.3c0,0,0.1,0,0.1,0c0.3,0,0.5-0.2,0.5-0.5l1-3.7l3.7,1c0.2,0.1,0.5,0,0.7-0.2
			C20,16.4,20,16.2,19.9,15.9z M6.3,17.8l-0.7-2.8c0-0.2-0.1-0.3-0.3-0.4c-0.1-0.1-0.3-0.1-0.5-0.1l-2.8,0.8l2.5-4.4
			c1,1.4,2.5,2.4,4.2,2.7L6.3,17.8z M4.4,6.9c0-3.1,2.5-5.6,5.6-5.6s5.6,2.5,5.6,5.6s-2.5,5.6-5.6,5.6S4.4,10,4.4,6.9z M15.3,14.5
			c-0.2,0-0.3,0-0.5,0.1c-0.1,0.1-0.2,0.2-0.3,0.4l-0.7,2.8l-2.4-4.1c1.7-0.3,3.2-1.3,4.2-2.7l2.5,4.4L15.3,14.5z"/>
	</g>
</g>
<g>
	<g>
		<path class="st0" d="M13.7,5.3c-0.1-0.2-0.2-0.4-0.4-0.4l-1.8-0.5l-1-1.6c-0.2-0.4-0.9-0.4-1.1,0l-1,1.6L6.7,4.9
			C6.5,5,6.4,5.1,6.3,5.3s0,0.4,0.1,0.6l1.2,1.5L7.5,9.3c0,0.2,0.1,0.4,0.3,0.6C7.9,10,8.1,10,8.3,10L10,9.2l1.7,0.7
			c0.1,0,0.2,0.1,0.2,0.1c0.1,0,0.3,0,0.4-0.1c0.2-0.1,0.3-0.3,0.3-0.6l-0.1-1.9l1.2-1.5C13.8,5.7,13.8,5.5,13.7,5.3z M11.3,6.8
			c-0.1,0.1-0.1,0.3-0.1,0.4l0.1,1.2l-1-0.4c-0.1,0-0.2-0.1-0.2-0.1c-0.1,0-0.2,0-0.2,0.1l-1,0.4l0.1-1.2c0-0.2,0-0.3-0.1-0.4L8,5.9
			l1.1-0.3c0.2,0,0.3-0.1,0.4-0.3l0.6-1l0.6,1c0.1,0.1,0.2,0.2,0.4,0.3L12,5.9L11.3,6.8z"/>
	</g>
</g>
</svg>
