<?xml version="1.0" encoding="utf-8"?>
<!-- Generator: Adobe Illustrator 22.0.1, SVG Export Plug-In . SVG Version: 6.00 Build 0)  -->
<svg version="1.1" id="Layer_1" xmlns="http://www.w3.org/2000/svg" xmlns:xlink="http://www.w3.org/1999/xlink" x="0px" y="0px"
	 width="16px" height="16px" viewBox="0 0 16 16" style="enable-background:new 0 0 16 16;" xml:space="preserve">
<style type="text/css">
	.st0{fill:#FFFFFF;}
</style>
<path class="st0" d="M15.7,4.1c-0.2-0.7-0.7-1.2-1.4-1.4C13,2.3,8,2.3,8,2.3s-5,0-6.3,0.3C1.1,2.8,0.5,3.4,0.3,4.1
	C0,5.3,0,7.9,0,7.9s0,2.6,0.3,3.8c0.2,0.7,0.7,1.2,1.4,1.4C3,13.5,8,13.5,8,13.5s5,0,6.3-0.3c0.7-0.2,1.2-0.7,1.4-1.4
	C16,10.5,16,7.9,16,7.9S16,5.3,15.7,4.1z M6.4,10.3V5.5l4.2,2.4L6.4,10.3z"/>
</svg>
